<svg width="720" height="720" viewBox="0 0 720 720" fill="none" xmlns="http://www.w3.org/2000/svg">
  <defs>
    <linearGradient id="bg" x1="90" y1="74" x2="618" y2="646" gradientUnits="userSpaceOnUse">
      <stop stop-color="#FFFDFE"/>
      <stop offset="1" stop-color="#FFE8F3"/>
    </linearGradient>
  </defs>
  <rect width="720" height="720" rx="56" fill="url(#bg)"/>
  <circle cx="360" cy="308" r="214" fill="#FFFFFF" fill-opacity="0.86"/>
  <circle cx="182" cy="150" r="18" fill="#FFD9E8"/>
  <circle cx="526" cy="132" r="14" fill="#FFE6F1"/>
  <path d="M610 176L620 156L630 176L650 186L630 196L620 216L610 196L590 186L610 176Z" fill="#FFE16E"/>
  <path d="M152 210C163 191 181 183 201 183C220 183 237 191 247 208C257 191 274 183 294 183C314 183 331 191 342 210C352 228 348 249 333 264C319 279 297 293 247 327C196 293 174 279 160 264C145 249 141 228 152 210Z" fill="#FFC3DC"/>
  <g stroke="#2E316E" stroke-width="8" stroke-linecap="round" stroke-linejoin="round">
    <path d="M118 468H602"/>
    <path d="M248 250L210 116C202 88 220 66 248 72L292 214L248 250Z" fill="#FFD83D"/>
    <path d="M472 250L510 116C518 88 500 66 472 72L428 214L472 250Z" fill="#FFD83D"/>
    <path d="M252 238L234 164C228 142 241 126 262 128L286 214L252 238Z" fill="#7E4F2A"/>
    <path d="M468 238L486 164C492 142 479 126 458 128L434 214L468 238Z" fill="#7E4F2A"/>
    <path d="M500 298C500 378 432 432 360 432C288 432 220 378 220 298C220 216 280 166 360 166C440 166 500 216 500 298Z" fill="#FFD83D"/>
    <path d="M456 306C456 362 408 398 360 398C312 398 264 362 264 306C264 250 304 222 360 222C416 222 456 250 456 306Z" fill="#FFF6D9" stroke="none"/>
    <ellipse cx="314" cy="298" rx="26" ry="30" fill="#2E316E"/>
    <ellipse cx="406" cy="298" rx="26" ry="30" fill="#2E316E"/>
    <ellipse cx="306" cy="288" rx="8" ry="10" fill="white" stroke="none"/>
    <ellipse cx="398" cy="288" rx="8" ry="10" fill="white" stroke="none"/>
    <path d="M360 322C373 322 383 332 383 344C383 356 373 366 360 372C347 366 337 356 337 344C337 332 347 322 360 322Z" fill="#2E316E"/>
    <path d="M334 374C348 386 372 386 386 374"/>
    <circle cx="270" cy="338" r="16" fill="#FF8CAB" stroke="none"/>
    <circle cx="450" cy="338" r="16" fill="#FF8CAB" stroke="none"/>
    <path d="M294 252L322 238" stroke="#B87B14"/>
    <path d="M426 252L398 238" stroke="#B87B14"/>
    <path d="M278 286L314 282" stroke="#B87B14"/>
    <path d="M442 286L406 282" stroke="#B87B14"/>
    <path d="M320 442C320 418 338 400 360 400C382 400 400 418 400 442V470H320V442Z" fill="#5EC6E8"/>
    <path d="M118 468H602"/>
    <path d="M272 432C272 412 288 396 308 396H332C352 396 368 412 368 432V468H272V432Z" fill="#FFD83D"/>
    <path d="M352 432C352 412 368 396 388 396H412C432 396 448 412 448 432V468H352V432Z" fill="#FFD83D"/>
    <path d="M294 446C294 438 300 432 308 432H316C324 432 330 438 330 446V468H294V446Z" fill="#FFF0A8"/>
    <path d="M390 446C390 438 396 432 404 432H412C420 432 426 438 426 446V468H390V446Z" fill="#FFF0A8"/>
  </g>
</svg>
