<svg width="720" height="720" viewBox="0 0 720 720" fill="none" xmlns="http://www.w3.org/2000/svg">
  <defs>
    <linearGradient id="bg" x1="98" y1="76" x2="624" y2="648" gradientUnits="userSpaceOnUse">
      <stop stop-color="#FFFDFE"/>
      <stop offset="1" stop-color="#FFEAF4"/>
    </linearGradient>
  </defs>
  <rect width="720" height="720" rx="56" fill="url(#bg)"/>
  <circle cx="360" cy="308" r="214" fill="#FFFFFF" fill-opacity="0.86"/>
  <path d="M548 146L560 120L572 146L598 156L572 166L560 192L548 166L522 156L548 146Z" fill="#FFE16E"/>
  <path d="M138 176L148 154L158 176L180 186L158 196L148 218L138 196L116 186L138 176Z" fill="#FFE16E"/>
  <path d="M616 248L624 232L632 248L648 256L632 264L624 280L616 264L600 256L616 248Z" fill="#FFD96D"/>
  <g stroke="#2E316E" stroke-width="8" stroke-linecap="round" stroke-linejoin="round">
    <path d="M118 468H602"/>
    <path d="M248 250L210 116C202 88 220 66 248 72L292 214L248 250Z" fill="#FFD83D"/>
    <path d="M472 250L510 116C518 88 500 66 472 72L428 214L472 250Z" fill="#FFD83D"/>
    <path d="M252 238L234 164C228 142 241 126 262 128L286 214L252 238Z" fill="#7E4F2A"/>
    <path d="M468 238L486 164C492 142 479 126 458 128L434 214L468 238Z" fill="#7E4F2A"/>
    <path d="M500 298C500 378 432 432 360 432C288 432 220 378 220 298C220 216 280 166 360 166C440 166 500 216 500 298Z" fill="#FFD83D"/>
    <path d="M456 306C456 362 408 398 360 398C312 398 264 362 264 306C264 250 304 222 360 222C416 222 456 250 456 306Z" fill="#FFF6D9" stroke="none"/>
    <ellipse cx="314" cy="298" rx="28" ry="32" fill="#2E316E"/>
    <ellipse cx="406" cy="298" rx="28" ry="32" fill="#2E316E"/>
    <ellipse cx="306" cy="286" rx="8" ry="10" fill="white" stroke="none"/>
    <ellipse cx="398" cy="286" rx="8" ry="10" fill="white" stroke="none"/>
    <path d="M360 326C376 326 388 338 388 352C388 367 376 379 360 384C344 379 332 367 332 352C332 338 344 326 360 326Z" fill="#2E316E"/>
    <circle cx="270" cy="338" r="16" fill="#FF8CAB" stroke="none"/>
    <circle cx="450" cy="338" r="16" fill="#FF8CAB" stroke="none"/>
    <path d="M294 252L322 238" stroke="#B87B14"/>
    <path d="M426 252L398 238" stroke="#B87B14"/>
    <path d="M320 442C320 418 338 400 360 400C382 400 400 418 400 442V470H320V442Z" fill="#5EC6E8"/>
    <path d="M272 432C272 412 288 396 308 396H332C352 396 368 412 368 432V468H272V432Z" fill="#FFD83D"/>
    <path d="M352 432C352 412 368 396 388 396H412C432 396 448 412 448 432V468H352V432Z" fill="#FFD83D"/>
    <path d="M294 446C294 438 300 432 308 432H316C324 432 330 438 330 446V468H294V446Z" fill="#FFF0A8"/>
    <path d="M390 446C390 438 396 432 404 432H412C420 432 426 438 426 446V468H390V446Z" fill="#FFF0A8"/>
  </g>
</svg>
