<svg width="720" height="720" viewBox="0 0 720 720" fill="none" xmlns="http://www.w3.org/2000/svg">
  <defs>
    <linearGradient id="bg" x1="90" y1="72" x2="630" y2="650" gradientUnits="userSpaceOnUse">
      <stop stop-color="#FFFDFE"/>
      <stop offset="1" stop-color="#F8E4F0"/>
    </linearGradient>
  </defs>
  <rect width="720" height="720" rx="56" fill="url(#bg)"/>
  <circle cx="360" cy="308" r="214" fill="#FFFFFF" fill-opacity="0.86"/>
  <path d="M548 146L560 120L572 146L598 156L572 166L560 192L548 166L522 156L548 146Z" fill="#FFE16E"/>
  <path d="M156 136C168 122 184 116 201 116C220 116 235 123 246 137C257 123 272 116 291 116C308 116 324 122 336 136C348 151 347 172 337 185C326 199 309 208 246 238C182 208 166 199 155 185C145 172 144 151 156 136Z" fill="#DDE3F6"/>
  <path d="M160 186C160 164 178 146 200 146H292C314 146 332 164 332 186C332 208 314 226 292 226H200C178 226 160 208 160 186Z" fill="#D4DCF2"/>
  <path d="M198 228L186 268" stroke="#A9D0FF" stroke-width="8" stroke-linecap="round"/>
  <path d="M246 228L234 272" stroke="#A9D0FF" stroke-width="8" stroke-linecap="round"/>
  <path d="M294 228L282 268" stroke="#A9D0FF" stroke-width="8" stroke-linecap="round"/>
  <g stroke="#2E316E" stroke-width="8" stroke-linecap="round" stroke-linejoin="round">
    <path d="M118 468H602"/>
    <path d="M248 250L210 116C202 88 220 66 248 72L292 214L248 250Z" fill="#FFD83D"/>
    <path d="M472 250L510 116C518 88 500 66 472 72L428 214L472 250Z" fill="#FFD83D"/>
    <path d="M252 238L234 164C228 142 241 126 262 128L286 214L252 238Z" fill="#7E4F2A"/>
    <path d="M468 238L486 164C492 142 479 126 458 128L434 214L468 238Z" fill="#7E4F2A"/>
    <path d="M500 298C500 378 432 432 360 432C288 432 220 378 220 298C220 216 280 166 360 166C440 166 500 216 500 298Z" fill="#FFD83D"/>
    <path d="M456 306C456 362 408 398 360 398C312 398 264 362 264 306C264 250 304 222 360 222C416 222 456 250 456 306Z" fill="#FFF6D9" stroke="none"/>
    <path d="M294 298C304 288 316 288 326 298"/>
    <path d="M394 298C404 288 416 288 426 298"/>
    <path d="M360 326C373 326 383 336 383 348C383 360 373 370 360 376C347 370 337 360 337 348C337 336 347 326 360 326Z" fill="#2E316E"/>
    <path d="M340 378C350 372 370 372 380 378"/>
    <path d="M294 304C306 348 306 396 292 440" stroke="#58C9FF"/>
    <path d="M316 304C326 348 326 396 312 440" stroke="#9AE7FF"/>
    <path d="M404 304C416 348 416 396 402 440" stroke="#58C9FF"/>
    <path d="M426 304C436 348 436 396 422 440" stroke="#9AE7FF"/>
    <circle cx="270" cy="338" r="16" fill="#FF8CAB" stroke="none"/>
    <circle cx="450" cy="338" r="16" fill="#FF8CAB" stroke="none"/>
    <path d="M320 442C320 418 338 400 360 400C382 400 400 418 400 442V470H320V442Z" fill="#5EC6E8"/>
    <path d="M272 432C272 412 288 396 308 396H332C352 396 368 412 368 432V468H272V432Z" fill="#FFD83D"/>
    <path d="M352 432C352 412 368 396 388 396H412C432 396 448 412 448 432V468H352V432Z" fill="#FFD83D"/>
    <path d="M294 446C294 438 300 432 308 432H316C324 432 330 438 330 446V468H294V446Z" fill="#FFF0A8"/>
    <path d="M390 446C390 438 396 432 404 432H412C420 432 426 438 426 446V468H390V446Z" fill="#FFF0A8"/>
  </g>
</svg>
