<svg width="720" height="720" viewBox="0 0 720 720" fill="none" xmlns="http://www.w3.org/2000/svg">
  <defs>
    <linearGradient id="bg" x1="92" y1="70" x2="628" y2="650" gradientUnits="userSpaceOnUse">
      <stop stop-color="#FFFDFE"/>
      <stop offset="1" stop-color="#FBE7F1"/>
    </linearGradient>
  </defs>
  <rect width="720" height="720" rx="56" fill="url(#bg)"/>
  <circle cx="360" cy="308" r="214" fill="#FFFFFF" fill-opacity="0.86"/>
  <path d="M164 122C176 108 192 102 209 102C228 102 243 109 254 123C265 109 280 102 299 102C316 102 332 108 344 122C356 137 355 158 345 171C334 185 317 194 254 224C190 194 174 185 163 171C153 158 152 137 164 122Z" fill="#E8EAF7"/>
  <path d="M168 172C168 150 186 132 208 132H300C322 132 340 150 340 172C340 194 322 212 300 212H208C186 212 168 194 168 172Z" fill="#E4E7F4"/>
  <path d="M212 214L202 246" stroke="#BBD9FF" stroke-width="8" stroke-linecap="round"/>
  <path d="M264 214L254 250" stroke="#BBD9FF" stroke-width="8" stroke-linecap="round"/>
  <path d="M314 214L304 246" stroke="#BBD9FF" stroke-width="8" stroke-linecap="round"/>
  <g stroke="#2E316E" stroke-width="8" stroke-linecap="round" stroke-linejoin="round">
    <path d="M118 468H602"/>
    <path d="M248 250L210 116C202 88 220 66 248 72L292 214L248 250Z" fill="#FFD83D"/>
    <path d="M472 250L510 116C518 88 500 66 472 72L428 214L472 250Z" fill="#FFD83D"/>
    <path d="M252 238L234 164C228 142 241 126 262 128L286 214L252 238Z" fill="#7E4F2A"/>
    <path d="M468 238L486 164C492 142 479 126 458 128L434 214L468 238Z" fill="#7E4F2A"/>
    <path d="M500 298C500 378 432 432 360 432C288 432 220 378 220 298C220 216 280 166 360 166C440 166 500 216 500 298Z" fill="#FFD83D"/>
    <path d="M456 306C456 362 408 398 360 398C312 398 264 362 264 306C264 250 304 222 360 222C416 222 456 250 456 306Z" fill="#FFF6D9" stroke="none"/>
    <path d="M294 298C304 288 316 288 326 298"/>
    <path d="M394 298C404 288 416 288 426 298"/>
    <path d="M360 326C373 326 383 336 383 348C383 360 373 370 360 376C347 370 337 360 337 348C337 336 347 326 360 326Z" fill="#2E316E"/>
    <path d="M340 378C350 372 370 372 380 378"/>
    <path d="M300 306C308 332 308 360 298 388" stroke="#69CEFF"/>
    <path d="M420 306C428 332 428 360 418 388" stroke="#69CEFF"/>
    <circle cx="270" cy="338" r="16" fill="#FF8CAB" stroke="none"/>
    <circle cx="450" cy="338" r="16" fill="#FF8CAB" stroke="none"/>
    <path d="M320 442C320 418 338 400 360 400C382 400 400 418 400 442V470H320V442Z" fill="#5EC6E8"/>
    <path d="M272 432C272 412 288 396 308 396H332C352 396 368 412 368 432V468H272V432Z" fill="#FFD83D"/>
    <path d="M352 432C352 412 368 396 388 396H412C432 396 448 412 448 432V468H352V432Z" fill="#FFD83D"/>
    <path d="M294 446C294 438 300 432 308 432H316C324 432 330 438 330 446V468H294V446Z" fill="#FFF0A8"/>
    <path d="M390 446C390 438 396 432 404 432H412C420 432 426 438 426 446V468H390V446Z" fill="#FFF0A8"/>
  </g>
</svg>
